<mxfile host="Electron" modified="2024-05-05T06:54:05.859Z" agent="Mozilla/5.0 (Windows NT 10.0; Win64; x64) AppleWebKit/537.36 (KHTML, like Gecko) draw.io/24.2.5 Chrome/120.0.6099.109 Electron/28.1.0 Safari/537.36" etag="cRGA1NxzcEU3dVKHV848" version="24.2.5" type="device">
  <diagram name="第 1 页" id="dVdpCF9wNjlWeNjONU8Y">
    <mxGraphModel dx="989" dy="577" grid="1" gridSize="10" guides="1" tooltips="1" connect="1" arrows="1" fold="1" page="1" pageScale="1" pageWidth="1169" pageHeight="1654" math="0" shadow="0">
      <root>
        <mxCell id="0" />
        <mxCell id="1" parent="0" />
        <mxCell id="Zq69K3W4b0BrGSPP5fbC-1" value="" style="rounded=0;whiteSpace=wrap;html=1;fillColor=#d5e8d4;strokeColor=#82b366;" vertex="1" parent="1">
          <mxGeometry x="280" y="400" width="685" height="430" as="geometry" />
        </mxCell>
        <mxCell id="Zq69K3W4b0BrGSPP5fbC-4" value="&lt;font face=&quot;Times New Roman&quot; style=&quot;font-size: 20px;&quot;&gt;Control&lt;/font&gt;" style="rounded=0;whiteSpace=wrap;html=1;fillColor=#fff2cc;strokeColor=#d6b656;" vertex="1" parent="1">
          <mxGeometry x="300" y="420" width="180" height="180" as="geometry" />
        </mxCell>
        <mxCell id="Zq69K3W4b0BrGSPP5fbC-5" value="&lt;font style=&quot;font-size: 20px;&quot; face=&quot;Times New Roman&quot;&gt;ALU&lt;/font&gt;" style="rounded=0;whiteSpace=wrap;html=1;fillColor=#60a917;fontColor=#ffffff;strokeColor=#2D7600;" vertex="1" parent="1">
          <mxGeometry x="490" y="420" width="50" height="80" as="geometry" />
        </mxCell>
        <mxCell id="Zq69K3W4b0BrGSPP5fbC-7" value="&lt;span style=&quot;font-family: &amp;quot;Times New Roman&amp;quot;; font-size: 20px;&quot;&gt;ALU&lt;/span&gt;" style="rounded=0;whiteSpace=wrap;html=1;fillColor=#60a917;fontColor=#ffffff;strokeColor=#2D7600;" vertex="1" parent="1">
          <mxGeometry x="550" y="420" width="50" height="80" as="geometry" />
        </mxCell>
        <mxCell id="Zq69K3W4b0BrGSPP5fbC-8" value="&lt;span style=&quot;font-family: &amp;quot;Times New Roman&amp;quot;; font-size: 20px;&quot;&gt;ALU&lt;/span&gt;" style="rounded=0;whiteSpace=wrap;html=1;fillColor=#60a917;fontColor=#ffffff;strokeColor=#2D7600;" vertex="1" parent="1">
          <mxGeometry x="490" y="510" width="50" height="90" as="geometry" />
        </mxCell>
        <mxCell id="Zq69K3W4b0BrGSPP5fbC-9" value="&lt;span style=&quot;font-family: &amp;quot;Times New Roman&amp;quot;; font-size: 20px;&quot;&gt;ALU&lt;/span&gt;" style="rounded=0;whiteSpace=wrap;html=1;fillColor=#60a917;fontColor=#ffffff;strokeColor=#2D7600;" vertex="1" parent="1">
          <mxGeometry x="550" y="510" width="50" height="90" as="geometry" />
        </mxCell>
        <mxCell id="Zq69K3W4b0BrGSPP5fbC-10" value="&lt;font style=&quot;font-size: 20px;&quot; face=&quot;Times New Roman&quot;&gt;Cache&lt;/font&gt;" style="rounded=0;whiteSpace=wrap;html=1;fillColor=#f8cecc;strokeColor=#b85450;" vertex="1" parent="1">
          <mxGeometry x="300" y="610" width="300" height="130" as="geometry" />
        </mxCell>
        <mxCell id="Zq69K3W4b0BrGSPP5fbC-11" value="&lt;font style=&quot;font-size: 20px;&quot; face=&quot;Times New Roman&quot;&gt;DRAM&lt;/font&gt;" style="rounded=0;whiteSpace=wrap;html=1;fillColor=#f8cecc;strokeColor=#b85450;" vertex="1" parent="1">
          <mxGeometry x="300" y="750" width="300" height="40" as="geometry" />
        </mxCell>
        <mxCell id="Zq69K3W4b0BrGSPP5fbC-12" value="&lt;font style=&quot;font-size: 20px;&quot; face=&quot;Times New Roman&quot;&gt;DRAM&lt;/font&gt;" style="rounded=0;whiteSpace=wrap;html=1;fillColor=#f8cecc;strokeColor=#b85450;" vertex="1" parent="1">
          <mxGeometry x="640" y="750" width="305" height="40" as="geometry" />
        </mxCell>
        <mxCell id="Zq69K3W4b0BrGSPP5fbC-13" value="" style="rounded=0;whiteSpace=wrap;html=1;fillColor=#fff2cc;strokeColor=#d6b656;" vertex="1" parent="1">
          <mxGeometry x="640" y="420" width="30" height="10" as="geometry" />
        </mxCell>
        <mxCell id="Zq69K3W4b0BrGSPP5fbC-14" value="" style="rounded=0;whiteSpace=wrap;html=1;fillColor=#f8cecc;strokeColor=#b85450;" vertex="1" parent="1">
          <mxGeometry x="640" y="430" width="30" height="10" as="geometry" />
        </mxCell>
        <mxCell id="Zq69K3W4b0BrGSPP5fbC-47" value="" style="rounded=0;whiteSpace=wrap;html=1;fillColor=#60a917;fontColor=#ffffff;strokeColor=#2D7600;" vertex="1" parent="1">
          <mxGeometry x="675" y="420" width="30" height="20" as="geometry" />
        </mxCell>
        <mxCell id="Zq69K3W4b0BrGSPP5fbC-52" value="" style="rounded=0;whiteSpace=wrap;html=1;fillColor=#fff2cc;strokeColor=#d6b656;" vertex="1" parent="1">
          <mxGeometry x="640" y="445" width="30" height="10" as="geometry" />
        </mxCell>
        <mxCell id="Zq69K3W4b0BrGSPP5fbC-53" value="" style="rounded=0;whiteSpace=wrap;html=1;fillColor=#f8cecc;strokeColor=#b85450;" vertex="1" parent="1">
          <mxGeometry x="640" y="455" width="30" height="10" as="geometry" />
        </mxCell>
        <mxCell id="Zq69K3W4b0BrGSPP5fbC-54" value="" style="rounded=0;whiteSpace=wrap;html=1;fillColor=#fff2cc;strokeColor=#d6b656;" vertex="1" parent="1">
          <mxGeometry x="640" y="470" width="30" height="10" as="geometry" />
        </mxCell>
        <mxCell id="Zq69K3W4b0BrGSPP5fbC-55" value="" style="rounded=0;whiteSpace=wrap;html=1;fillColor=#f8cecc;strokeColor=#b85450;" vertex="1" parent="1">
          <mxGeometry x="640" y="480" width="30" height="10" as="geometry" />
        </mxCell>
        <mxCell id="Zq69K3W4b0BrGSPP5fbC-56" value="" style="rounded=0;whiteSpace=wrap;html=1;fillColor=#fff2cc;strokeColor=#d6b656;" vertex="1" parent="1">
          <mxGeometry x="640" y="495" width="30" height="10" as="geometry" />
        </mxCell>
        <mxCell id="Zq69K3W4b0BrGSPP5fbC-57" value="" style="rounded=0;whiteSpace=wrap;html=1;fillColor=#f8cecc;strokeColor=#b85450;" vertex="1" parent="1">
          <mxGeometry x="640" y="505" width="30" height="10" as="geometry" />
        </mxCell>
        <mxCell id="Zq69K3W4b0BrGSPP5fbC-58" value="" style="rounded=0;whiteSpace=wrap;html=1;fillColor=#fff2cc;strokeColor=#d6b656;" vertex="1" parent="1">
          <mxGeometry x="640" y="520" width="30" height="10" as="geometry" />
        </mxCell>
        <mxCell id="Zq69K3W4b0BrGSPP5fbC-59" value="" style="rounded=0;whiteSpace=wrap;html=1;fillColor=#f8cecc;strokeColor=#b85450;" vertex="1" parent="1">
          <mxGeometry x="640" y="530" width="30" height="10" as="geometry" />
        </mxCell>
        <mxCell id="Zq69K3W4b0BrGSPP5fbC-60" value="" style="rounded=0;whiteSpace=wrap;html=1;fillColor=#fff2cc;strokeColor=#d6b656;" vertex="1" parent="1">
          <mxGeometry x="640" y="545" width="30" height="10" as="geometry" />
        </mxCell>
        <mxCell id="Zq69K3W4b0BrGSPP5fbC-61" value="" style="rounded=0;whiteSpace=wrap;html=1;fillColor=#f8cecc;strokeColor=#b85450;" vertex="1" parent="1">
          <mxGeometry x="640" y="555" width="30" height="10" as="geometry" />
        </mxCell>
        <mxCell id="Zq69K3W4b0BrGSPP5fbC-62" value="" style="rounded=0;whiteSpace=wrap;html=1;fillColor=#fff2cc;strokeColor=#d6b656;" vertex="1" parent="1">
          <mxGeometry x="640" y="570" width="30" height="10" as="geometry" />
        </mxCell>
        <mxCell id="Zq69K3W4b0BrGSPP5fbC-63" value="" style="rounded=0;whiteSpace=wrap;html=1;fillColor=#f8cecc;strokeColor=#b85450;" vertex="1" parent="1">
          <mxGeometry x="640" y="580" width="30" height="10" as="geometry" />
        </mxCell>
        <mxCell id="Zq69K3W4b0BrGSPP5fbC-64" value="" style="rounded=0;whiteSpace=wrap;html=1;fillColor=#fff2cc;strokeColor=#d6b656;" vertex="1" parent="1">
          <mxGeometry x="640" y="595" width="30" height="10" as="geometry" />
        </mxCell>
        <mxCell id="Zq69K3W4b0BrGSPP5fbC-65" value="" style="rounded=0;whiteSpace=wrap;html=1;fillColor=#f8cecc;strokeColor=#b85450;" vertex="1" parent="1">
          <mxGeometry x="640" y="605" width="30" height="10" as="geometry" />
        </mxCell>
        <mxCell id="Zq69K3W4b0BrGSPP5fbC-67" value="" style="rounded=0;whiteSpace=wrap;html=1;fillColor=#fff2cc;strokeColor=#d6b656;" vertex="1" parent="1">
          <mxGeometry x="640" y="620" width="30" height="10" as="geometry" />
        </mxCell>
        <mxCell id="Zq69K3W4b0BrGSPP5fbC-68" value="" style="rounded=0;whiteSpace=wrap;html=1;fillColor=#f8cecc;strokeColor=#b85450;" vertex="1" parent="1">
          <mxGeometry x="640" y="630" width="30" height="10" as="geometry" />
        </mxCell>
        <mxCell id="Zq69K3W4b0BrGSPP5fbC-69" value="" style="rounded=0;whiteSpace=wrap;html=1;fillColor=#fff2cc;strokeColor=#d6b656;" vertex="1" parent="1">
          <mxGeometry x="640" y="645" width="30" height="10" as="geometry" />
        </mxCell>
        <mxCell id="Zq69K3W4b0BrGSPP5fbC-70" value="" style="rounded=0;whiteSpace=wrap;html=1;fillColor=#f8cecc;strokeColor=#b85450;" vertex="1" parent="1">
          <mxGeometry x="640" y="655" width="30" height="10" as="geometry" />
        </mxCell>
        <mxCell id="Zq69K3W4b0BrGSPP5fbC-71" value="" style="rounded=0;whiteSpace=wrap;html=1;fillColor=#fff2cc;strokeColor=#d6b656;" vertex="1" parent="1">
          <mxGeometry x="640" y="670" width="30" height="10" as="geometry" />
        </mxCell>
        <mxCell id="Zq69K3W4b0BrGSPP5fbC-72" value="" style="rounded=0;whiteSpace=wrap;html=1;fillColor=#f8cecc;strokeColor=#b85450;" vertex="1" parent="1">
          <mxGeometry x="640" y="680" width="30" height="10" as="geometry" />
        </mxCell>
        <mxCell id="Zq69K3W4b0BrGSPP5fbC-73" value="" style="rounded=0;whiteSpace=wrap;html=1;fillColor=#fff2cc;strokeColor=#d6b656;" vertex="1" parent="1">
          <mxGeometry x="640" y="695" width="30" height="10" as="geometry" />
        </mxCell>
        <mxCell id="Zq69K3W4b0BrGSPP5fbC-74" value="" style="rounded=0;whiteSpace=wrap;html=1;fillColor=#f8cecc;strokeColor=#b85450;" vertex="1" parent="1">
          <mxGeometry x="640" y="705" width="30" height="10" as="geometry" />
        </mxCell>
        <mxCell id="Zq69K3W4b0BrGSPP5fbC-75" value="" style="rounded=0;whiteSpace=wrap;html=1;fillColor=#fff2cc;strokeColor=#d6b656;" vertex="1" parent="1">
          <mxGeometry x="640" y="720" width="30" height="10" as="geometry" />
        </mxCell>
        <mxCell id="Zq69K3W4b0BrGSPP5fbC-76" value="" style="rounded=0;whiteSpace=wrap;html=1;fillColor=#f8cecc;strokeColor=#b85450;" vertex="1" parent="1">
          <mxGeometry x="640" y="730" width="30" height="10" as="geometry" />
        </mxCell>
        <mxCell id="Zq69K3W4b0BrGSPP5fbC-83" value="" style="rounded=0;whiteSpace=wrap;html=1;fillColor=#60a917;fontColor=#ffffff;strokeColor=#2D7600;" vertex="1" parent="1">
          <mxGeometry x="710" y="420" width="30" height="20" as="geometry" />
        </mxCell>
        <mxCell id="Zq69K3W4b0BrGSPP5fbC-84" value="" style="rounded=0;whiteSpace=wrap;html=1;fillColor=#60a917;fontColor=#ffffff;strokeColor=#2D7600;" vertex="1" parent="1">
          <mxGeometry x="745" y="420" width="30" height="20" as="geometry" />
        </mxCell>
        <mxCell id="Zq69K3W4b0BrGSPP5fbC-85" value="" style="rounded=0;whiteSpace=wrap;html=1;fillColor=#60a917;fontColor=#ffffff;strokeColor=#2D7600;" vertex="1" parent="1">
          <mxGeometry x="780" y="420" width="30" height="20" as="geometry" />
        </mxCell>
        <mxCell id="Zq69K3W4b0BrGSPP5fbC-86" value="" style="rounded=0;whiteSpace=wrap;html=1;fillColor=#60a917;fontColor=#ffffff;strokeColor=#2D7600;" vertex="1" parent="1">
          <mxGeometry x="815" y="420" width="30" height="20" as="geometry" />
        </mxCell>
        <mxCell id="Zq69K3W4b0BrGSPP5fbC-87" value="" style="rounded=0;whiteSpace=wrap;html=1;fillColor=#60a917;fontColor=#ffffff;strokeColor=#2D7600;" vertex="1" parent="1">
          <mxGeometry x="850" y="420" width="30" height="20" as="geometry" />
        </mxCell>
        <mxCell id="Zq69K3W4b0BrGSPP5fbC-88" value="" style="rounded=0;whiteSpace=wrap;html=1;fillColor=#60a917;fontColor=#ffffff;strokeColor=#2D7600;" vertex="1" parent="1">
          <mxGeometry x="885" y="420" width="30" height="20" as="geometry" />
        </mxCell>
        <mxCell id="Zq69K3W4b0BrGSPP5fbC-89" value="" style="rounded=0;whiteSpace=wrap;html=1;fillColor=#60a917;fontColor=#ffffff;strokeColor=#2D7600;" vertex="1" parent="1">
          <mxGeometry x="920" y="420" width="30" height="20" as="geometry" />
        </mxCell>
        <mxCell id="Zq69K3W4b0BrGSPP5fbC-91" value="" style="endArrow=none;html=1;rounded=0;entryX=0.5;entryY=1;entryDx=0;entryDy=0;exitX=0.5;exitY=0;exitDx=0;exitDy=0;" edge="1" parent="1" source="Zq69K3W4b0BrGSPP5fbC-1" target="Zq69K3W4b0BrGSPP5fbC-1">
          <mxGeometry width="50" height="50" relative="1" as="geometry">
            <mxPoint x="620" y="400" as="sourcePoint" />
            <mxPoint x="650" y="580" as="targetPoint" />
          </mxGeometry>
        </mxCell>
        <mxCell id="Zq69K3W4b0BrGSPP5fbC-92" value="&lt;font style=&quot;font-size: 20px;&quot; face=&quot;Times New Roman&quot;&gt;CPU&lt;/font&gt;" style="text;html=1;align=center;verticalAlign=middle;whiteSpace=wrap;rounded=0;" vertex="1" parent="1">
          <mxGeometry x="420" y="800" width="60" height="30" as="geometry" />
        </mxCell>
        <mxCell id="Zq69K3W4b0BrGSPP5fbC-93" value="&lt;font style=&quot;font-size: 20px;&quot; face=&quot;Times New Roman&quot;&gt;GPU&lt;/font&gt;" style="text;html=1;align=center;verticalAlign=middle;whiteSpace=wrap;rounded=0;" vertex="1" parent="1">
          <mxGeometry x="765" y="800" width="60" height="30" as="geometry" />
        </mxCell>
        <mxCell id="Zq69K3W4b0BrGSPP5fbC-94" value="" style="rounded=0;whiteSpace=wrap;html=1;fillColor=#60a917;fontColor=#ffffff;strokeColor=#2D7600;" vertex="1" parent="1">
          <mxGeometry x="675" y="445" width="30" height="20" as="geometry" />
        </mxCell>
        <mxCell id="Zq69K3W4b0BrGSPP5fbC-95" value="" style="rounded=0;whiteSpace=wrap;html=1;fillColor=#60a917;fontColor=#ffffff;strokeColor=#2D7600;" vertex="1" parent="1">
          <mxGeometry x="710" y="445" width="30" height="20" as="geometry" />
        </mxCell>
        <mxCell id="Zq69K3W4b0BrGSPP5fbC-96" value="" style="rounded=0;whiteSpace=wrap;html=1;fillColor=#60a917;fontColor=#ffffff;strokeColor=#2D7600;" vertex="1" parent="1">
          <mxGeometry x="745" y="445" width="30" height="20" as="geometry" />
        </mxCell>
        <mxCell id="Zq69K3W4b0BrGSPP5fbC-97" value="" style="rounded=0;whiteSpace=wrap;html=1;fillColor=#60a917;fontColor=#ffffff;strokeColor=#2D7600;" vertex="1" parent="1">
          <mxGeometry x="780" y="445" width="30" height="20" as="geometry" />
        </mxCell>
        <mxCell id="Zq69K3W4b0BrGSPP5fbC-98" value="" style="rounded=0;whiteSpace=wrap;html=1;fillColor=#60a917;fontColor=#ffffff;strokeColor=#2D7600;" vertex="1" parent="1">
          <mxGeometry x="815" y="445" width="30" height="20" as="geometry" />
        </mxCell>
        <mxCell id="Zq69K3W4b0BrGSPP5fbC-99" value="" style="rounded=0;whiteSpace=wrap;html=1;fillColor=#60a917;fontColor=#ffffff;strokeColor=#2D7600;" vertex="1" parent="1">
          <mxGeometry x="850" y="445" width="30" height="20" as="geometry" />
        </mxCell>
        <mxCell id="Zq69K3W4b0BrGSPP5fbC-100" value="" style="rounded=0;whiteSpace=wrap;html=1;fillColor=#60a917;fontColor=#ffffff;strokeColor=#2D7600;" vertex="1" parent="1">
          <mxGeometry x="885" y="445" width="30" height="20" as="geometry" />
        </mxCell>
        <mxCell id="Zq69K3W4b0BrGSPP5fbC-101" value="" style="rounded=0;whiteSpace=wrap;html=1;fillColor=#60a917;fontColor=#ffffff;strokeColor=#2D7600;" vertex="1" parent="1">
          <mxGeometry x="920" y="445" width="30" height="20" as="geometry" />
        </mxCell>
        <mxCell id="Zq69K3W4b0BrGSPP5fbC-118" value="" style="rounded=0;whiteSpace=wrap;html=1;fillColor=#60a917;fontColor=#ffffff;strokeColor=#2D7600;" vertex="1" parent="1">
          <mxGeometry x="675" y="470" width="30" height="20" as="geometry" />
        </mxCell>
        <mxCell id="Zq69K3W4b0BrGSPP5fbC-119" value="" style="rounded=0;whiteSpace=wrap;html=1;fillColor=#60a917;fontColor=#ffffff;strokeColor=#2D7600;" vertex="1" parent="1">
          <mxGeometry x="710" y="470" width="30" height="20" as="geometry" />
        </mxCell>
        <mxCell id="Zq69K3W4b0BrGSPP5fbC-120" value="" style="rounded=0;whiteSpace=wrap;html=1;fillColor=#60a917;fontColor=#ffffff;strokeColor=#2D7600;" vertex="1" parent="1">
          <mxGeometry x="745" y="470" width="30" height="20" as="geometry" />
        </mxCell>
        <mxCell id="Zq69K3W4b0BrGSPP5fbC-121" value="" style="rounded=0;whiteSpace=wrap;html=1;fillColor=#60a917;fontColor=#ffffff;strokeColor=#2D7600;" vertex="1" parent="1">
          <mxGeometry x="780" y="470" width="30" height="20" as="geometry" />
        </mxCell>
        <mxCell id="Zq69K3W4b0BrGSPP5fbC-122" value="" style="rounded=0;whiteSpace=wrap;html=1;fillColor=#60a917;fontColor=#ffffff;strokeColor=#2D7600;" vertex="1" parent="1">
          <mxGeometry x="815" y="470" width="30" height="20" as="geometry" />
        </mxCell>
        <mxCell id="Zq69K3W4b0BrGSPP5fbC-123" value="" style="rounded=0;whiteSpace=wrap;html=1;fillColor=#60a917;fontColor=#ffffff;strokeColor=#2D7600;" vertex="1" parent="1">
          <mxGeometry x="850" y="470" width="30" height="20" as="geometry" />
        </mxCell>
        <mxCell id="Zq69K3W4b0BrGSPP5fbC-124" value="" style="rounded=0;whiteSpace=wrap;html=1;fillColor=#60a917;fontColor=#ffffff;strokeColor=#2D7600;" vertex="1" parent="1">
          <mxGeometry x="885" y="470" width="30" height="20" as="geometry" />
        </mxCell>
        <mxCell id="Zq69K3W4b0BrGSPP5fbC-125" value="" style="rounded=0;whiteSpace=wrap;html=1;fillColor=#60a917;fontColor=#ffffff;strokeColor=#2D7600;" vertex="1" parent="1">
          <mxGeometry x="920" y="470" width="30" height="20" as="geometry" />
        </mxCell>
        <mxCell id="Zq69K3W4b0BrGSPP5fbC-126" value="" style="rounded=0;whiteSpace=wrap;html=1;fillColor=#60a917;fontColor=#ffffff;strokeColor=#2D7600;" vertex="1" parent="1">
          <mxGeometry x="675" y="495" width="30" height="20" as="geometry" />
        </mxCell>
        <mxCell id="Zq69K3W4b0BrGSPP5fbC-127" value="" style="rounded=0;whiteSpace=wrap;html=1;fillColor=#60a917;fontColor=#ffffff;strokeColor=#2D7600;" vertex="1" parent="1">
          <mxGeometry x="710" y="495" width="30" height="20" as="geometry" />
        </mxCell>
        <mxCell id="Zq69K3W4b0BrGSPP5fbC-128" value="" style="rounded=0;whiteSpace=wrap;html=1;fillColor=#60a917;fontColor=#ffffff;strokeColor=#2D7600;" vertex="1" parent="1">
          <mxGeometry x="745" y="495" width="30" height="20" as="geometry" />
        </mxCell>
        <mxCell id="Zq69K3W4b0BrGSPP5fbC-129" value="" style="rounded=0;whiteSpace=wrap;html=1;fillColor=#60a917;fontColor=#ffffff;strokeColor=#2D7600;" vertex="1" parent="1">
          <mxGeometry x="780" y="495" width="30" height="20" as="geometry" />
        </mxCell>
        <mxCell id="Zq69K3W4b0BrGSPP5fbC-130" value="" style="rounded=0;whiteSpace=wrap;html=1;fillColor=#60a917;fontColor=#ffffff;strokeColor=#2D7600;" vertex="1" parent="1">
          <mxGeometry x="815" y="495" width="30" height="20" as="geometry" />
        </mxCell>
        <mxCell id="Zq69K3W4b0BrGSPP5fbC-131" value="" style="rounded=0;whiteSpace=wrap;html=1;fillColor=#60a917;fontColor=#ffffff;strokeColor=#2D7600;" vertex="1" parent="1">
          <mxGeometry x="850" y="495" width="30" height="20" as="geometry" />
        </mxCell>
        <mxCell id="Zq69K3W4b0BrGSPP5fbC-132" value="" style="rounded=0;whiteSpace=wrap;html=1;fillColor=#60a917;fontColor=#ffffff;strokeColor=#2D7600;" vertex="1" parent="1">
          <mxGeometry x="885" y="495" width="30" height="20" as="geometry" />
        </mxCell>
        <mxCell id="Zq69K3W4b0BrGSPP5fbC-133" value="" style="rounded=0;whiteSpace=wrap;html=1;fillColor=#60a917;fontColor=#ffffff;strokeColor=#2D7600;" vertex="1" parent="1">
          <mxGeometry x="920" y="495" width="30" height="20" as="geometry" />
        </mxCell>
        <mxCell id="Zq69K3W4b0BrGSPP5fbC-134" value="" style="rounded=0;whiteSpace=wrap;html=1;fillColor=#60a917;fontColor=#ffffff;strokeColor=#2D7600;" vertex="1" parent="1">
          <mxGeometry x="675" y="520" width="30" height="20" as="geometry" />
        </mxCell>
        <mxCell id="Zq69K3W4b0BrGSPP5fbC-135" value="" style="rounded=0;whiteSpace=wrap;html=1;fillColor=#60a917;fontColor=#ffffff;strokeColor=#2D7600;" vertex="1" parent="1">
          <mxGeometry x="710" y="520" width="30" height="20" as="geometry" />
        </mxCell>
        <mxCell id="Zq69K3W4b0BrGSPP5fbC-136" value="" style="rounded=0;whiteSpace=wrap;html=1;fillColor=#60a917;fontColor=#ffffff;strokeColor=#2D7600;" vertex="1" parent="1">
          <mxGeometry x="745" y="520" width="30" height="20" as="geometry" />
        </mxCell>
        <mxCell id="Zq69K3W4b0BrGSPP5fbC-137" value="" style="rounded=0;whiteSpace=wrap;html=1;fillColor=#60a917;fontColor=#ffffff;strokeColor=#2D7600;" vertex="1" parent="1">
          <mxGeometry x="780" y="520" width="30" height="20" as="geometry" />
        </mxCell>
        <mxCell id="Zq69K3W4b0BrGSPP5fbC-138" value="" style="rounded=0;whiteSpace=wrap;html=1;fillColor=#60a917;fontColor=#ffffff;strokeColor=#2D7600;" vertex="1" parent="1">
          <mxGeometry x="815" y="520" width="30" height="20" as="geometry" />
        </mxCell>
        <mxCell id="Zq69K3W4b0BrGSPP5fbC-139" value="" style="rounded=0;whiteSpace=wrap;html=1;fillColor=#60a917;fontColor=#ffffff;strokeColor=#2D7600;" vertex="1" parent="1">
          <mxGeometry x="850" y="520" width="30" height="20" as="geometry" />
        </mxCell>
        <mxCell id="Zq69K3W4b0BrGSPP5fbC-140" value="" style="rounded=0;whiteSpace=wrap;html=1;fillColor=#60a917;fontColor=#ffffff;strokeColor=#2D7600;" vertex="1" parent="1">
          <mxGeometry x="885" y="520" width="30" height="20" as="geometry" />
        </mxCell>
        <mxCell id="Zq69K3W4b0BrGSPP5fbC-141" value="" style="rounded=0;whiteSpace=wrap;html=1;fillColor=#60a917;fontColor=#ffffff;strokeColor=#2D7600;" vertex="1" parent="1">
          <mxGeometry x="920" y="520" width="30" height="20" as="geometry" />
        </mxCell>
        <mxCell id="Zq69K3W4b0BrGSPP5fbC-142" value="" style="rounded=0;whiteSpace=wrap;html=1;fillColor=#60a917;fontColor=#ffffff;strokeColor=#2D7600;" vertex="1" parent="1">
          <mxGeometry x="675" y="545" width="30" height="20" as="geometry" />
        </mxCell>
        <mxCell id="Zq69K3W4b0BrGSPP5fbC-143" value="" style="rounded=0;whiteSpace=wrap;html=1;fillColor=#60a917;fontColor=#ffffff;strokeColor=#2D7600;" vertex="1" parent="1">
          <mxGeometry x="710" y="545" width="30" height="20" as="geometry" />
        </mxCell>
        <mxCell id="Zq69K3W4b0BrGSPP5fbC-144" value="" style="rounded=0;whiteSpace=wrap;html=1;fillColor=#60a917;fontColor=#ffffff;strokeColor=#2D7600;" vertex="1" parent="1">
          <mxGeometry x="745" y="545" width="30" height="20" as="geometry" />
        </mxCell>
        <mxCell id="Zq69K3W4b0BrGSPP5fbC-145" value="" style="rounded=0;whiteSpace=wrap;html=1;fillColor=#60a917;fontColor=#ffffff;strokeColor=#2D7600;" vertex="1" parent="1">
          <mxGeometry x="780" y="545" width="30" height="20" as="geometry" />
        </mxCell>
        <mxCell id="Zq69K3W4b0BrGSPP5fbC-146" value="" style="rounded=0;whiteSpace=wrap;html=1;fillColor=#60a917;fontColor=#ffffff;strokeColor=#2D7600;" vertex="1" parent="1">
          <mxGeometry x="815" y="545" width="30" height="20" as="geometry" />
        </mxCell>
        <mxCell id="Zq69K3W4b0BrGSPP5fbC-147" value="" style="rounded=0;whiteSpace=wrap;html=1;fillColor=#60a917;fontColor=#ffffff;strokeColor=#2D7600;" vertex="1" parent="1">
          <mxGeometry x="850" y="545" width="30" height="20" as="geometry" />
        </mxCell>
        <mxCell id="Zq69K3W4b0BrGSPP5fbC-148" value="" style="rounded=0;whiteSpace=wrap;html=1;fillColor=#60a917;fontColor=#ffffff;strokeColor=#2D7600;" vertex="1" parent="1">
          <mxGeometry x="885" y="545" width="30" height="20" as="geometry" />
        </mxCell>
        <mxCell id="Zq69K3W4b0BrGSPP5fbC-149" value="" style="rounded=0;whiteSpace=wrap;html=1;fillColor=#60a917;fontColor=#ffffff;strokeColor=#2D7600;" vertex="1" parent="1">
          <mxGeometry x="920" y="545" width="30" height="20" as="geometry" />
        </mxCell>
        <mxCell id="Zq69K3W4b0BrGSPP5fbC-150" value="" style="rounded=0;whiteSpace=wrap;html=1;fillColor=#60a917;fontColor=#ffffff;strokeColor=#2D7600;" vertex="1" parent="1">
          <mxGeometry x="675" y="570" width="30" height="20" as="geometry" />
        </mxCell>
        <mxCell id="Zq69K3W4b0BrGSPP5fbC-151" value="" style="rounded=0;whiteSpace=wrap;html=1;fillColor=#60a917;fontColor=#ffffff;strokeColor=#2D7600;" vertex="1" parent="1">
          <mxGeometry x="710" y="570" width="30" height="20" as="geometry" />
        </mxCell>
        <mxCell id="Zq69K3W4b0BrGSPP5fbC-152" value="" style="rounded=0;whiteSpace=wrap;html=1;fillColor=#60a917;fontColor=#ffffff;strokeColor=#2D7600;" vertex="1" parent="1">
          <mxGeometry x="745" y="570" width="30" height="20" as="geometry" />
        </mxCell>
        <mxCell id="Zq69K3W4b0BrGSPP5fbC-153" value="" style="rounded=0;whiteSpace=wrap;html=1;fillColor=#60a917;fontColor=#ffffff;strokeColor=#2D7600;" vertex="1" parent="1">
          <mxGeometry x="780" y="570" width="30" height="20" as="geometry" />
        </mxCell>
        <mxCell id="Zq69K3W4b0BrGSPP5fbC-154" value="" style="rounded=0;whiteSpace=wrap;html=1;fillColor=#60a917;fontColor=#ffffff;strokeColor=#2D7600;" vertex="1" parent="1">
          <mxGeometry x="815" y="570" width="30" height="20" as="geometry" />
        </mxCell>
        <mxCell id="Zq69K3W4b0BrGSPP5fbC-155" value="" style="rounded=0;whiteSpace=wrap;html=1;fillColor=#60a917;fontColor=#ffffff;strokeColor=#2D7600;" vertex="1" parent="1">
          <mxGeometry x="850" y="570" width="30" height="20" as="geometry" />
        </mxCell>
        <mxCell id="Zq69K3W4b0BrGSPP5fbC-156" value="" style="rounded=0;whiteSpace=wrap;html=1;fillColor=#60a917;fontColor=#ffffff;strokeColor=#2D7600;" vertex="1" parent="1">
          <mxGeometry x="885" y="570" width="30" height="20" as="geometry" />
        </mxCell>
        <mxCell id="Zq69K3W4b0BrGSPP5fbC-157" value="" style="rounded=0;whiteSpace=wrap;html=1;fillColor=#60a917;fontColor=#ffffff;strokeColor=#2D7600;" vertex="1" parent="1">
          <mxGeometry x="920" y="570" width="30" height="20" as="geometry" />
        </mxCell>
        <mxCell id="Zq69K3W4b0BrGSPP5fbC-158" value="" style="rounded=0;whiteSpace=wrap;html=1;fillColor=#60a917;fontColor=#ffffff;strokeColor=#2D7600;" vertex="1" parent="1">
          <mxGeometry x="675" y="595" width="30" height="20" as="geometry" />
        </mxCell>
        <mxCell id="Zq69K3W4b0BrGSPP5fbC-159" value="" style="rounded=0;whiteSpace=wrap;html=1;fillColor=#60a917;fontColor=#ffffff;strokeColor=#2D7600;" vertex="1" parent="1">
          <mxGeometry x="710" y="595" width="30" height="20" as="geometry" />
        </mxCell>
        <mxCell id="Zq69K3W4b0BrGSPP5fbC-160" value="" style="rounded=0;whiteSpace=wrap;html=1;fillColor=#60a917;fontColor=#ffffff;strokeColor=#2D7600;" vertex="1" parent="1">
          <mxGeometry x="745" y="595" width="30" height="20" as="geometry" />
        </mxCell>
        <mxCell id="Zq69K3W4b0BrGSPP5fbC-161" value="" style="rounded=0;whiteSpace=wrap;html=1;fillColor=#60a917;fontColor=#ffffff;strokeColor=#2D7600;" vertex="1" parent="1">
          <mxGeometry x="780" y="595" width="30" height="20" as="geometry" />
        </mxCell>
        <mxCell id="Zq69K3W4b0BrGSPP5fbC-162" value="" style="rounded=0;whiteSpace=wrap;html=1;fillColor=#60a917;fontColor=#ffffff;strokeColor=#2D7600;" vertex="1" parent="1">
          <mxGeometry x="815" y="595" width="30" height="20" as="geometry" />
        </mxCell>
        <mxCell id="Zq69K3W4b0BrGSPP5fbC-163" value="" style="rounded=0;whiteSpace=wrap;html=1;fillColor=#60a917;fontColor=#ffffff;strokeColor=#2D7600;" vertex="1" parent="1">
          <mxGeometry x="850" y="595" width="30" height="20" as="geometry" />
        </mxCell>
        <mxCell id="Zq69K3W4b0BrGSPP5fbC-164" value="" style="rounded=0;whiteSpace=wrap;html=1;fillColor=#60a917;fontColor=#ffffff;strokeColor=#2D7600;" vertex="1" parent="1">
          <mxGeometry x="885" y="595" width="30" height="20" as="geometry" />
        </mxCell>
        <mxCell id="Zq69K3W4b0BrGSPP5fbC-165" value="" style="rounded=0;whiteSpace=wrap;html=1;fillColor=#60a917;fontColor=#ffffff;strokeColor=#2D7600;" vertex="1" parent="1">
          <mxGeometry x="920" y="595" width="30" height="20" as="geometry" />
        </mxCell>
        <mxCell id="Zq69K3W4b0BrGSPP5fbC-166" value="" style="rounded=0;whiteSpace=wrap;html=1;fillColor=#60a917;fontColor=#ffffff;strokeColor=#2D7600;" vertex="1" parent="1">
          <mxGeometry x="675" y="620" width="30" height="20" as="geometry" />
        </mxCell>
        <mxCell id="Zq69K3W4b0BrGSPP5fbC-167" value="" style="rounded=0;whiteSpace=wrap;html=1;fillColor=#60a917;fontColor=#ffffff;strokeColor=#2D7600;" vertex="1" parent="1">
          <mxGeometry x="710" y="620" width="30" height="20" as="geometry" />
        </mxCell>
        <mxCell id="Zq69K3W4b0BrGSPP5fbC-168" value="" style="rounded=0;whiteSpace=wrap;html=1;fillColor=#60a917;fontColor=#ffffff;strokeColor=#2D7600;" vertex="1" parent="1">
          <mxGeometry x="745" y="620" width="30" height="20" as="geometry" />
        </mxCell>
        <mxCell id="Zq69K3W4b0BrGSPP5fbC-169" value="" style="rounded=0;whiteSpace=wrap;html=1;fillColor=#60a917;fontColor=#ffffff;strokeColor=#2D7600;" vertex="1" parent="1">
          <mxGeometry x="780" y="620" width="30" height="20" as="geometry" />
        </mxCell>
        <mxCell id="Zq69K3W4b0BrGSPP5fbC-170" value="" style="rounded=0;whiteSpace=wrap;html=1;fillColor=#60a917;fontColor=#ffffff;strokeColor=#2D7600;" vertex="1" parent="1">
          <mxGeometry x="815" y="620" width="30" height="20" as="geometry" />
        </mxCell>
        <mxCell id="Zq69K3W4b0BrGSPP5fbC-171" value="" style="rounded=0;whiteSpace=wrap;html=1;fillColor=#60a917;fontColor=#ffffff;strokeColor=#2D7600;" vertex="1" parent="1">
          <mxGeometry x="850" y="620" width="30" height="20" as="geometry" />
        </mxCell>
        <mxCell id="Zq69K3W4b0BrGSPP5fbC-172" value="" style="rounded=0;whiteSpace=wrap;html=1;fillColor=#60a917;fontColor=#ffffff;strokeColor=#2D7600;" vertex="1" parent="1">
          <mxGeometry x="885" y="620" width="30" height="20" as="geometry" />
        </mxCell>
        <mxCell id="Zq69K3W4b0BrGSPP5fbC-173" value="" style="rounded=0;whiteSpace=wrap;html=1;fillColor=#60a917;fontColor=#ffffff;strokeColor=#2D7600;" vertex="1" parent="1">
          <mxGeometry x="920" y="620" width="30" height="20" as="geometry" />
        </mxCell>
        <mxCell id="Zq69K3W4b0BrGSPP5fbC-174" value="" style="rounded=0;whiteSpace=wrap;html=1;fillColor=#60a917;fontColor=#ffffff;strokeColor=#2D7600;" vertex="1" parent="1">
          <mxGeometry x="675" y="645" width="30" height="20" as="geometry" />
        </mxCell>
        <mxCell id="Zq69K3W4b0BrGSPP5fbC-175" value="" style="rounded=0;whiteSpace=wrap;html=1;fillColor=#60a917;fontColor=#ffffff;strokeColor=#2D7600;" vertex="1" parent="1">
          <mxGeometry x="710" y="645" width="30" height="20" as="geometry" />
        </mxCell>
        <mxCell id="Zq69K3W4b0BrGSPP5fbC-176" value="" style="rounded=0;whiteSpace=wrap;html=1;fillColor=#60a917;fontColor=#ffffff;strokeColor=#2D7600;" vertex="1" parent="1">
          <mxGeometry x="745" y="645" width="30" height="20" as="geometry" />
        </mxCell>
        <mxCell id="Zq69K3W4b0BrGSPP5fbC-177" value="" style="rounded=0;whiteSpace=wrap;html=1;fillColor=#60a917;fontColor=#ffffff;strokeColor=#2D7600;" vertex="1" parent="1">
          <mxGeometry x="780" y="645" width="30" height="20" as="geometry" />
        </mxCell>
        <mxCell id="Zq69K3W4b0BrGSPP5fbC-178" value="" style="rounded=0;whiteSpace=wrap;html=1;fillColor=#60a917;fontColor=#ffffff;strokeColor=#2D7600;" vertex="1" parent="1">
          <mxGeometry x="815" y="645" width="30" height="20" as="geometry" />
        </mxCell>
        <mxCell id="Zq69K3W4b0BrGSPP5fbC-179" value="" style="rounded=0;whiteSpace=wrap;html=1;fillColor=#60a917;fontColor=#ffffff;strokeColor=#2D7600;" vertex="1" parent="1">
          <mxGeometry x="850" y="645" width="30" height="20" as="geometry" />
        </mxCell>
        <mxCell id="Zq69K3W4b0BrGSPP5fbC-180" value="" style="rounded=0;whiteSpace=wrap;html=1;fillColor=#60a917;fontColor=#ffffff;strokeColor=#2D7600;" vertex="1" parent="1">
          <mxGeometry x="885" y="645" width="30" height="20" as="geometry" />
        </mxCell>
        <mxCell id="Zq69K3W4b0BrGSPP5fbC-181" value="" style="rounded=0;whiteSpace=wrap;html=1;fillColor=#60a917;fontColor=#ffffff;strokeColor=#2D7600;" vertex="1" parent="1">
          <mxGeometry x="920" y="645" width="30" height="20" as="geometry" />
        </mxCell>
        <mxCell id="Zq69K3W4b0BrGSPP5fbC-182" value="" style="rounded=0;whiteSpace=wrap;html=1;fillColor=#60a917;fontColor=#ffffff;strokeColor=#2D7600;" vertex="1" parent="1">
          <mxGeometry x="675" y="670" width="30" height="20" as="geometry" />
        </mxCell>
        <mxCell id="Zq69K3W4b0BrGSPP5fbC-183" value="" style="rounded=0;whiteSpace=wrap;html=1;fillColor=#60a917;fontColor=#ffffff;strokeColor=#2D7600;" vertex="1" parent="1">
          <mxGeometry x="710" y="670" width="30" height="20" as="geometry" />
        </mxCell>
        <mxCell id="Zq69K3W4b0BrGSPP5fbC-184" value="" style="rounded=0;whiteSpace=wrap;html=1;fillColor=#60a917;fontColor=#ffffff;strokeColor=#2D7600;" vertex="1" parent="1">
          <mxGeometry x="745" y="670" width="30" height="20" as="geometry" />
        </mxCell>
        <mxCell id="Zq69K3W4b0BrGSPP5fbC-185" value="" style="rounded=0;whiteSpace=wrap;html=1;fillColor=#60a917;fontColor=#ffffff;strokeColor=#2D7600;" vertex="1" parent="1">
          <mxGeometry x="780" y="670" width="30" height="20" as="geometry" />
        </mxCell>
        <mxCell id="Zq69K3W4b0BrGSPP5fbC-186" value="" style="rounded=0;whiteSpace=wrap;html=1;fillColor=#60a917;fontColor=#ffffff;strokeColor=#2D7600;" vertex="1" parent="1">
          <mxGeometry x="815" y="670" width="30" height="20" as="geometry" />
        </mxCell>
        <mxCell id="Zq69K3W4b0BrGSPP5fbC-187" value="" style="rounded=0;whiteSpace=wrap;html=1;fillColor=#60a917;fontColor=#ffffff;strokeColor=#2D7600;" vertex="1" parent="1">
          <mxGeometry x="850" y="670" width="30" height="20" as="geometry" />
        </mxCell>
        <mxCell id="Zq69K3W4b0BrGSPP5fbC-188" value="" style="rounded=0;whiteSpace=wrap;html=1;fillColor=#60a917;fontColor=#ffffff;strokeColor=#2D7600;" vertex="1" parent="1">
          <mxGeometry x="885" y="670" width="30" height="20" as="geometry" />
        </mxCell>
        <mxCell id="Zq69K3W4b0BrGSPP5fbC-189" value="" style="rounded=0;whiteSpace=wrap;html=1;fillColor=#60a917;fontColor=#ffffff;strokeColor=#2D7600;" vertex="1" parent="1">
          <mxGeometry x="920" y="670" width="30" height="20" as="geometry" />
        </mxCell>
        <mxCell id="Zq69K3W4b0BrGSPP5fbC-190" value="" style="rounded=0;whiteSpace=wrap;html=1;fillColor=#60a917;fontColor=#ffffff;strokeColor=#2D7600;" vertex="1" parent="1">
          <mxGeometry x="675" y="695" width="30" height="20" as="geometry" />
        </mxCell>
        <mxCell id="Zq69K3W4b0BrGSPP5fbC-191" value="" style="rounded=0;whiteSpace=wrap;html=1;fillColor=#60a917;fontColor=#ffffff;strokeColor=#2D7600;" vertex="1" parent="1">
          <mxGeometry x="710" y="695" width="30" height="20" as="geometry" />
        </mxCell>
        <mxCell id="Zq69K3W4b0BrGSPP5fbC-192" value="" style="rounded=0;whiteSpace=wrap;html=1;fillColor=#60a917;fontColor=#ffffff;strokeColor=#2D7600;" vertex="1" parent="1">
          <mxGeometry x="745" y="695" width="30" height="20" as="geometry" />
        </mxCell>
        <mxCell id="Zq69K3W4b0BrGSPP5fbC-193" value="" style="rounded=0;whiteSpace=wrap;html=1;fillColor=#60a917;fontColor=#ffffff;strokeColor=#2D7600;" vertex="1" parent="1">
          <mxGeometry x="780" y="695" width="30" height="20" as="geometry" />
        </mxCell>
        <mxCell id="Zq69K3W4b0BrGSPP5fbC-194" value="" style="rounded=0;whiteSpace=wrap;html=1;fillColor=#60a917;fontColor=#ffffff;strokeColor=#2D7600;" vertex="1" parent="1">
          <mxGeometry x="815" y="695" width="30" height="20" as="geometry" />
        </mxCell>
        <mxCell id="Zq69K3W4b0BrGSPP5fbC-195" value="" style="rounded=0;whiteSpace=wrap;html=1;fillColor=#60a917;fontColor=#ffffff;strokeColor=#2D7600;" vertex="1" parent="1">
          <mxGeometry x="850" y="695" width="30" height="20" as="geometry" />
        </mxCell>
        <mxCell id="Zq69K3W4b0BrGSPP5fbC-196" value="" style="rounded=0;whiteSpace=wrap;html=1;fillColor=#60a917;fontColor=#ffffff;strokeColor=#2D7600;" vertex="1" parent="1">
          <mxGeometry x="885" y="695" width="30" height="20" as="geometry" />
        </mxCell>
        <mxCell id="Zq69K3W4b0BrGSPP5fbC-197" value="" style="rounded=0;whiteSpace=wrap;html=1;fillColor=#60a917;fontColor=#ffffff;strokeColor=#2D7600;" vertex="1" parent="1">
          <mxGeometry x="920" y="695" width="30" height="20" as="geometry" />
        </mxCell>
        <mxCell id="Zq69K3W4b0BrGSPP5fbC-198" value="" style="rounded=0;whiteSpace=wrap;html=1;fillColor=#60a917;fontColor=#ffffff;strokeColor=#2D7600;" vertex="1" parent="1">
          <mxGeometry x="675" y="720" width="30" height="20" as="geometry" />
        </mxCell>
        <mxCell id="Zq69K3W4b0BrGSPP5fbC-199" value="" style="rounded=0;whiteSpace=wrap;html=1;fillColor=#60a917;fontColor=#ffffff;strokeColor=#2D7600;" vertex="1" parent="1">
          <mxGeometry x="710" y="720" width="30" height="20" as="geometry" />
        </mxCell>
        <mxCell id="Zq69K3W4b0BrGSPP5fbC-200" value="" style="rounded=0;whiteSpace=wrap;html=1;fillColor=#60a917;fontColor=#ffffff;strokeColor=#2D7600;" vertex="1" parent="1">
          <mxGeometry x="745" y="720" width="30" height="20" as="geometry" />
        </mxCell>
        <mxCell id="Zq69K3W4b0BrGSPP5fbC-201" value="" style="rounded=0;whiteSpace=wrap;html=1;fillColor=#60a917;fontColor=#ffffff;strokeColor=#2D7600;" vertex="1" parent="1">
          <mxGeometry x="780" y="720" width="30" height="20" as="geometry" />
        </mxCell>
        <mxCell id="Zq69K3W4b0BrGSPP5fbC-202" value="" style="rounded=0;whiteSpace=wrap;html=1;fillColor=#60a917;fontColor=#ffffff;strokeColor=#2D7600;" vertex="1" parent="1">
          <mxGeometry x="815" y="720" width="30" height="20" as="geometry" />
        </mxCell>
        <mxCell id="Zq69K3W4b0BrGSPP5fbC-203" value="" style="rounded=0;whiteSpace=wrap;html=1;fillColor=#60a917;fontColor=#ffffff;strokeColor=#2D7600;" vertex="1" parent="1">
          <mxGeometry x="850" y="720" width="30" height="20" as="geometry" />
        </mxCell>
        <mxCell id="Zq69K3W4b0BrGSPP5fbC-204" value="" style="rounded=0;whiteSpace=wrap;html=1;fillColor=#60a917;fontColor=#ffffff;strokeColor=#2D7600;" vertex="1" parent="1">
          <mxGeometry x="885" y="720" width="30" height="20" as="geometry" />
        </mxCell>
        <mxCell id="Zq69K3W4b0BrGSPP5fbC-205" value="" style="rounded=0;whiteSpace=wrap;html=1;fillColor=#60a917;fontColor=#ffffff;strokeColor=#2D7600;" vertex="1" parent="1">
          <mxGeometry x="920" y="720" width="30" height="20" as="geometry" />
        </mxCell>
        <mxCell id="Zq69K3W4b0BrGSPP5fbC-206" value="" style="shape=curlyBracket;whiteSpace=wrap;html=1;rounded=1;flipH=1;labelPosition=right;verticalLabelPosition=middle;align=left;verticalAlign=middle;rotation=-90;" vertex="1" parent="1">
          <mxGeometry x="802.5" y="247.5" width="20" height="275" as="geometry" />
        </mxCell>
        <mxCell id="Zq69K3W4b0BrGSPP5fbC-207" value="&lt;font style=&quot;font-size: 20px;&quot; face=&quot;Times New Roman&quot;&gt;ALU&lt;/font&gt;" style="text;html=1;align=center;verticalAlign=middle;whiteSpace=wrap;rounded=0;" vertex="1" parent="1">
          <mxGeometry x="782.5" y="350" width="60" height="30" as="geometry" />
        </mxCell>
      </root>
    </mxGraphModel>
  </diagram>
</mxfile>
